<?xml version="1.0" encoding="utf-8" ?>
<svg baseProfile="full" height="980.0px" style="background-color:rgb(255, 255, 255)" version="1.1" viewBox="-40,-390.0,1725,980.0" width="1725px" xmlns="http://www.w3.org/2000/svg" xmlns:ev="http://www.w3.org/2001/xml-events" xmlns:xlink="http://www.w3.org/1999/xlink"><defs><marker id="id8" markerHeight="4" markerWidth="4" orient="auto" refX="2" refY="2"><path d="M0,0 V4 L2,2 Z" stroke-width="1" /></marker></defs><g id="stream-1"><path d="M 40 20.0  L 40 20  L 140 20  L 140 30  L 150 30 " fill="none" marker-end="url(#id8)" stroke="rgb(0, 0, 0)" stroke-width="2" /><text fill="rgb(0, 0, 0)" font-family="Arial" font-size="10" text-anchor="middle" x="65" y="10">stream-1</text></g><g id="stream-2"><path d="M 230 30.0  L 230 30  L 300 30 " fill="none" marker-end="url(#id8)" stroke="rgb(0, 0, 0)" stroke-width="2" /><text fill="rgb(0, 0, 0)" font-family="Arial" font-size="10" text-anchor="middle" x="255" y="20">stream-2</text></g><g id="stream-3"><path d="M 380 30.0  L 380 30  L 490 30  L 490 130  L 500 130 " fill="none" marker-end="url(#id8)" stroke="rgb(0, 0, 0)" stroke-width="2" /><text fill="rgb(0, 0, 0)" font-family="Arial" font-size="10" text-anchor="middle" x="405" y="20">stream-3</text></g><g id="stream-4"><path d="M 380 30.0  L 380 30  L 390 30  L 390 -70  L 500 -70 " fill="none" marker-end="url(#id8)" stroke="rgb(0, 0, 0)" stroke-width="2" /><text fill="rgb(0, 0, 0)" font-family="Arial" font-size="10" text-anchor="middle" x="405" y="40">stream-4</text></g><g id="stream-5"><path d="M 40 520.0  L 40 520  L 50 520  L 50 70  L 240 70  L 240 40  L 290 40  L 290 30  L 300 30 " fill="none" marker-end="url(#id8)" stroke="rgb(0, 0, 0)" stroke-width="2" /><text fill="rgb(0, 0, 0)" font-family="Arial" font-size="10" text-anchor="middle" x="65" y="530">stream-5</text></g><g id="stream-6"><path d="M 580 -70.0  L 580 -70  L 590 -70  L 590 -30  L 420 -30  L 420 -10  L 140 -10  L 140 30  L 150 30 " fill="none" marker-end="url(#id8)" stroke="rgb(0, 0, 0)" stroke-width="2" /><text fill="rgb(0, 0, 0)" font-family="Arial" font-size="10" text-anchor="middle" x="605" y="-80">stream-6</text></g><g id="stream-7"><path d="M 580 -70.0  L 580 -70  L 650 -70 " fill="none" marker-end="url(#id8)" stroke="rgb(0, 0, 0)" stroke-width="2" /><text fill="rgb(0, 0, 0)" font-family="Arial" font-size="10" text-anchor="middle" x="605" y="-80">stream-7</text></g><g id="stream-8"><path d="M 730 -70.0  L 730 -70  L 800 -70 " fill="none" marker-end="url(#id8)" stroke="rgb(0, 0, 0)" stroke-width="2" /><text fill="rgb(0, 0, 0)" font-family="Arial" font-size="10" text-anchor="middle" x="755" y="-80">stream-8</text></g><g id="stream-9"><path d="M 880 -70.0  L 880 -70  L 990 -70  L 990 -20  L 1000 -20 " fill="none" marker-end="url(#id8)" stroke="rgb(0, 0, 0)" stroke-width="2" /><text fill="rgb(0, 0, 0)" font-family="Arial" font-size="10" text-anchor="middle" x="905" y="-80">stream-9</text></g><g id="stream-10"><path d="M 880 -70.0  L 880 -70  L 890 -70  L 890 -220  L 1000 -220 " fill="none" marker-end="url(#id8)" stroke="rgb(0, 0, 0)" stroke-width="2" /><text fill="rgb(0, 0, 0)" font-family="Arial" font-size="10" text-anchor="middle" x="905" y="-60">stream-10</text></g><g id="stream-11"><path d="M 1080 -20.0  L 1080 -20  L 1090 -20  L 1090 -180  L 990 -180  L 990 -220  L 1000 -220 " fill="none" marker-end="url(#id8)" stroke="rgb(0, 0, 0)" stroke-width="2" /><text fill="rgb(0, 0, 0)" font-family="Arial" font-size="10" text-anchor="middle" x="1105" y="-10">stream-11</text></g><g id="stream-12"><path d="M 1080 -220.0  L 1080 -220  L 1150 -220 " fill="none" marker-end="url(#id8)" stroke="rgb(0, 0, 0)" stroke-width="2" /><text fill="rgb(0, 0, 0)" font-family="Arial" font-size="10" text-anchor="middle" x="1105" y="-230">stream-12</text></g><g id="stream-13"><path d="M 1230 -220.0  L 1230 -220  L 1340 -220  L 1340 -120  L 1350 -120 " fill="none" marker-end="url(#id8)" stroke="rgb(0, 0, 0)" stroke-width="2" /><text fill="rgb(0, 0, 0)" font-family="Arial" font-size="10" text-anchor="middle" x="1255" y="-230">stream-13</text></g><g id="stream-14"><path d="M 1230 -220.0  L 1230 -220  L 1240 -220  L 1240 -320  L 1350 -320 " fill="none" marker-end="url(#id8)" stroke="rgb(0, 0, 0)" stroke-width="2" /><text fill="rgb(0, 0, 0)" font-family="Arial" font-size="10" text-anchor="middle" x="1255" y="-210">stream-14</text></g><g id="stream-15"><path d="M 1430 -120.0  L 1430 -120  L 1500 -120 " fill="none" marker-end="url(#id8)" stroke="rgb(0, 0, 0)" stroke-width="2" /><text fill="rgb(0, 0, 0)" font-family="Arial" font-size="10" text-anchor="middle" x="1455" y="-130">stream-15</text></g><g id="stream-16"><path d="M 1580 -120.0  L 1580 -120  L 1590 -120  L 1590 -80  L 1160 -80  L 1160 -110  L 640 -110  L 640 -70  L 650 -70 " fill="none" marker-end="url(#id8)" stroke="rgb(0, 0, 0)" stroke-width="2" /><text fill="rgb(0, 0, 0)" font-family="Arial" font-size="10" text-anchor="middle" x="1605" y="-130">stream-16</text></g><g id="raw-2T"><path d="M 0 10.0  L 20.0 10.0  L 20.0 0  L 40 20.0  L 20.0 40  L 20.0 30.0  L 0 30.0  Z" fill="rgb(255, 255, 255)" stroke="rgb(0, 0, 0)" stroke-width="2" /></g><g id="raw-2"><text fill="rgb(0, 0, 0)" font-family="Arial" font-size="12" text-anchor="middle" x="20.0" y="25.0">raw-2</text></g><g id="v-3T"><rect fill="rgb(255, 255, 255)" height="60" stroke="rgb(0, 0, 0)" stroke-width="2" width="80" x="150" y="0" /></g><g id="v-3"><text fill="rgb(0, 0, 0)" font-family="Arial" font-size="12" text-anchor="middle" x="190.0" y="35.0">v-3</text></g><g id="hex-1T"><rect fill="rgb(255, 255, 255)" height="60" stroke="rgb(0, 0, 0)" stroke-width="2" width="80" x="300" y="0" /></g><g id="hex-1"><text fill="rgb(0, 0, 0)" font-family="Arial" font-size="12" text-anchor="middle" x="340.0" y="35.0">hex-1</text></g><g id="raw-1T"><path d="M 0 510.0  L 20.0 510.0  L 20.0 500  L 40 520.0  L 20.0 540  L 20.0 530.0  L 0 530.0  Z" fill="rgb(255, 255, 255)" stroke="rgb(0, 0, 0)" stroke-width="2" /></g><g id="raw-1"><text fill="rgb(0, 0, 0)" font-family="Arial" font-size="12" text-anchor="middle" x="20.0" y="525.0">raw-1</text></g><g id="prod-2T"><rect fill="rgb(255, 255, 255)" height="60" stroke="rgb(0, 0, 0)" stroke-width="2" width="80" x="500" y="100" /></g><g id="prod-2"><text fill="rgb(0, 0, 0)" font-family="Arial" font-size="12" text-anchor="middle" x="540.0" y="135.0">prod-2</text></g><g id="C-1/TCT"><rect fill="rgb(255, 255, 255)" height="60" stroke="rgb(0, 0, 0)" stroke-width="2" width="80" x="500" y="-100" /></g><g id="C-1/TC"><text fill="rgb(0, 0, 0)" font-family="Arial" font-size="12" text-anchor="middle" x="540.0" y="-65.0">C-1/TC</text></g><g id="mix-1T"><rect fill="rgb(255, 255, 255)" height="60" stroke="rgb(0, 0, 0)" stroke-width="2" width="80" x="650" y="-100" /></g><g id="mix-1"><text fill="rgb(0, 0, 0)" font-family="Arial" font-size="12" text-anchor="middle" x="690.0" y="-65.0">mix-1</text></g><g id="r-1T"><rect fill="rgb(255, 255, 255)" height="60" stroke="rgb(0, 0, 0)" stroke-width="2" width="80" x="800" y="-100" /></g><g id="r-1"><text fill="rgb(0, 0, 0)" font-family="Arial" font-size="12" text-anchor="middle" x="840.0" y="-65.0">r-1</text></g><g id="C-2/LCT"><rect fill="rgb(255, 255, 255)" height="60.0" stroke="rgb(0, 0, 0)" stroke-width="2" width="80" x="1000" y="-50.0" /></g><g id="C-2/LC"><text fill="rgb(0, 0, 0)" font-family="Arial" font-size="12" text-anchor="middle" x="1040.0" y="-15.0">C-2/LC</text></g><g id="v-1T"><rect fill="rgb(255, 255, 255)" height="60.0" stroke="rgb(0, 0, 0)" stroke-width="2" width="80" x="1000" y="-250.0" /></g><g id="v-1"><text fill="rgb(0, 0, 0)" font-family="Arial" font-size="12" text-anchor="middle" x="1040.0" y="-215.0">v-1</text></g><g id="splt-1T"><rect fill="rgb(255, 255, 255)" height="60.0" stroke="rgb(0, 0, 0)" stroke-width="2" width="80" x="1150" y="-250.0" /></g><g id="splt-1"><text fill="rgb(0, 0, 0)" font-family="Arial" font-size="12" text-anchor="middle" x="1190.0" y="-215.0">splt-1</text></g><g id="C-3/FCT"><rect fill="rgb(255, 255, 255)" height="60.0" stroke="rgb(0, 0, 0)" stroke-width="2" width="80" x="1350" y="-150.0" /></g><g id="C-3/FC"><text fill="rgb(0, 0, 0)" font-family="Arial" font-size="12" text-anchor="middle" x="1390.0" y="-115.0">C-3/FC</text></g><g id="v-2T"><rect fill="rgb(255, 255, 255)" height="60.0" stroke="rgb(0, 0, 0)" stroke-width="2" width="80" x="1500" y="-150.0" /></g><g id="v-2"><text fill="rgb(0, 0, 0)" font-family="Arial" font-size="12" text-anchor="middle" x="1540.0" y="-115.0">v-2</text></g><g id="prod-1T"><rect fill="rgb(255, 255, 255)" height="60.0" stroke="rgb(0, 0, 0)" stroke-width="2" width="80" x="1350" y="-350.0" /></g><g id="prod-1"><text fill="rgb(0, 0, 0)" font-family="Arial" font-size="12" text-anchor="middle" x="1390.0" y="-315.0">prod-1</text></g></svg>