<?xml version="1.0" encoding="utf-8" ?>
<svg baseProfile="full" height="740px" style="background-color:rgb(255, 255, 255)" version="1.1" viewBox="-40,-140,660,740" width="660px" xmlns="http://www.w3.org/2000/svg" xmlns:ev="http://www.w3.org/2001/xml-events" xmlns:xlink="http://www.w3.org/1999/xlink"><defs><marker id="id4" markerHeight="4" markerWidth="4" orient="auto" refX="2" refY="2"><path d="M0,0 V4 L2,2 Z" stroke-width="1" /></marker></defs><g id="stream-1"><path d="M 40 20.0  L 40 20  L 140 20  L 140 30  L 150 30 " fill="none" marker-end="url(#id4)" stroke="rgb(0, 0, 0)" stroke-width="2" /><text fill="rgb(0, 0, 0)" font-family="Arial" font-size="10" text-anchor="middle" x="65" y="10">stream-1</text></g><g id="stream-2"><path d="M 230 30.0  L 230 30  L 340 30  L 340 130  L 350 130 " fill="none" marker-end="url(#id4)" stroke="rgb(0, 0, 0)" stroke-width="2" /><text fill="rgb(0, 0, 0)" font-family="Arial" font-size="10" text-anchor="middle" x="255" y="20">stream-2</text></g><g id="stream-3"><path d="M 230 30.0  L 230 30  L 240 30  L 240 -70  L 350 -70 " fill="none" marker-end="url(#id4)" stroke="rgb(0, 0, 0)" stroke-width="2" /><text fill="rgb(0, 0, 0)" font-family="Arial" font-size="10" text-anchor="middle" x="255" y="40">stream-3</text></g><g id="stream-4"><path d="M 40 520.0  L 40 520  L 140 520  L 140 530  L 150 530 " fill="none" marker-end="url(#id4)" stroke="rgb(0, 0, 0)" stroke-width="2" /><text fill="rgb(0, 0, 0)" font-family="Arial" font-size="10" text-anchor="middle" x="65" y="510">stream-4</text></g><g id="stream-5"><path d="M 230 530.0  L 230 530  L 240 530  L 240 70  L 140 70  L 140 30  L 150 30 " fill="none" marker-end="url(#id4)" stroke="rgb(0, 0, 0)" stroke-width="2" /><text fill="rgb(0, 0, 0)" font-family="Arial" font-size="10" text-anchor="middle" x="255" y="540">stream-5</text></g><g id="stream-6"><path d="M 430 130.0  L 430 130  L 500 130 " fill="none" marker-end="url(#id4)" stroke="rgb(0, 0, 0)" stroke-width="2" /><text fill="rgb(0, 0, 0)" font-family="Arial" font-size="10" text-anchor="middle" x="455" y="120">stream-6</text></g><g id="stream-7"><path d="M 430 130.0  L 430 130  L 440 130  L 440 270  L 280 270  L 280 490  L 140 490  L 140 530  L 150 530 " fill="none" marker-end="url(#id4)" stroke="rgb(0, 0, 0)" stroke-width="2" /><text fill="rgb(0, 0, 0)" font-family="Arial" font-size="10" text-anchor="middle" x="455" y="120">stream-7</text></g><g id="raw-1T"><path d="M 0 10.0  L 20.0 10.0  L 20.0 0  L 40 20.0  L 20.0 40  L 20.0 30.0  L 0 30.0  Z" fill="rgb(255, 255, 255)" stroke="rgb(0, 0, 0)" stroke-width="2" /></g><g id="raw-1"><text fill="rgb(0, 0, 0)" font-family="Arial" font-size="12" text-anchor="middle" x="20.0" y="25.0">raw-1</text></g><g id="hex-1T"><rect fill="rgb(255, 255, 255)" height="60" stroke="rgb(0, 0, 0)" stroke-width="2" width="80" x="150" y="0" /></g><g id="hex-1"><text fill="rgb(0, 0, 0)" font-family="Arial" font-size="12" text-anchor="middle" x="190.0" y="35.0">hex-1</text></g><g id="raw-2T"><path d="M 0 510.0  L 20.0 510.0  L 20.0 500  L 40 520.0  L 20.0 540  L 20.0 530.0  L 0 530.0  Z" fill="rgb(255, 255, 255)" stroke="rgb(0, 0, 0)" stroke-width="2" /></g><g id="raw-2"><text fill="rgb(0, 0, 0)" font-family="Arial" font-size="12" text-anchor="middle" x="20.0" y="525.0">raw-2</text></g><g id="v-1T"><rect fill="rgb(255, 255, 255)" height="60" stroke="rgb(0, 0, 0)" stroke-width="2" width="80" x="150" y="500" /></g><g id="v-1"><text fill="rgb(0, 0, 0)" font-family="Arial" font-size="12" text-anchor="middle" x="190.0" y="535.0">v-1</text></g><g id="C-1/TCT"><rect fill="rgb(255, 255, 255)" height="60" stroke="rgb(0, 0, 0)" stroke-width="2" width="80" x="350" y="100" /></g><g id="C-1/TC"><text fill="rgb(0, 0, 0)" font-family="Arial" font-size="12" text-anchor="middle" x="390.0" y="135.0">C-1/TC</text></g><g id="prod-1T"><rect fill="rgb(255, 255, 255)" height="60" stroke="rgb(0, 0, 0)" stroke-width="2" width="80" x="500" y="100" /></g><g id="prod-1"><text fill="rgb(0, 0, 0)" font-family="Arial" font-size="12" text-anchor="middle" x="540.0" y="135.0">prod-1</text></g><g id="prod-2T"><rect fill="rgb(255, 255, 255)" height="60" stroke="rgb(0, 0, 0)" stroke-width="2" width="80" x="350" y="-100" /></g><g id="prod-2"><text fill="rgb(0, 0, 0)" font-family="Arial" font-size="12" text-anchor="middle" x="390.0" y="-65.0">prod-2</text></g></svg>