<?xml version="1.0" encoding="utf-8" ?>
<svg baseProfile="full" height="2125.0px" style="background-color:rgb(255, 255, 255)" version="1.1" viewBox="-40,-1515.0,2710,2125.0" width="2710px" xmlns="http://www.w3.org/2000/svg" xmlns:ev="http://www.w3.org/2001/xml-events" xmlns:xlink="http://www.w3.org/1999/xlink"><defs><marker id="id2" markerHeight="4" markerWidth="4" orient="auto" refX="2" refY="2"><path d="M0,0 V4 L2,2 Z" stroke-width="1" /></marker></defs><g id="stream-1"><path d="M 40 20.0  L 40 20  L 140 20  L 140 30  L 150 30 " fill="none" marker-end="url(#id2)" stroke="rgb(0, 0, 0)" stroke-width="2" /><text fill="rgb(0, 0, 0)" font-family="Arial" font-size="10" text-anchor="middle" x="65" y="10">stream-1</text></g><g id="stream-2"><path d="M 230 30.0  L 230 30  L 340 30  L 340 130  L 350 130 " fill="none" marker-end="url(#id2)" stroke="rgb(0, 0, 0)" stroke-width="2" /><text fill="rgb(0, 0, 0)" font-family="Arial" font-size="10" text-anchor="middle" x="255" y="20">stream-2</text></g><g id="stream-3"><path d="M 230 30.0  L 230 30  L 240 30  L 240 -70  L 350 -70 " fill="none" marker-end="url(#id2)" stroke="rgb(0, 0, 0)" stroke-width="2" /><text fill="rgb(0, 0, 0)" font-family="Arial" font-size="10" text-anchor="middle" x="255" y="40">stream-3</text></g><g id="stream-4"><path d="M 430 -70.0  L 430 -70  L 500 -70 " fill="none" marker-end="url(#id2)" stroke="rgb(0, 0, 0)" stroke-width="2" /><text fill="rgb(0, 0, 0)" font-family="Arial" font-size="10" text-anchor="middle" x="455" y="-80">stream-4</text></g><g id="stream-5"><path d="M 430 -70.0  L 430 -70  L 440 -70  L 440 90  L 340 90  L 340 130  L 350 130 " fill="none" marker-end="url(#id2)" stroke="rgb(0, 0, 0)" stroke-width="2" /><text fill="rgb(0, 0, 0)" font-family="Arial" font-size="10" text-anchor="middle" x="455" y="-80">stream-5</text></g><g id="stream-6"><path d="M 580 -70.0  L 580 -70  L 650 -70 " fill="none" marker-end="url(#id2)" stroke="rgb(0, 0, 0)" stroke-width="2" /><text fill="rgb(0, 0, 0)" font-family="Arial" font-size="10" text-anchor="middle" x="605" y="-80">stream-6</text></g><g id="stream-7"><path d="M 730 -70.0  L 730 -70  L 800 -70 " fill="none" marker-end="url(#id2)" stroke="rgb(0, 0, 0)" stroke-width="2" /><text fill="rgb(0, 0, 0)" font-family="Arial" font-size="10" text-anchor="middle" x="755" y="-80">stream-7</text></g><g id="stream-8"><path d="M 880 -70.0  L 880 -70  L 890 -70  L 890 -140  L 1000 -140  L 1000 -145.0 " fill="none" marker-end="url(#id2)" stroke="rgb(0, 0, 0)" stroke-width="2" /><text fill="rgb(0, 0, 0)" font-family="Arial" font-size="10" text-anchor="middle" x="905" y="-60">stream-8</text></g><g id="stream-9"><path d="M 880 -70.0  L 880 -70  L 900 -70  L 900 -110  L 1090 -110  L 1090 -340  L 1200 -340  L 1200 -345.0 " fill="none" marker-end="url(#id2)" stroke="rgb(0, 0, 0)" stroke-width="2" /><text fill="rgb(0, 0, 0)" font-family="Arial" font-size="10" text-anchor="middle" x="905" y="-60">stream-9</text></g><g id="stream-10"><path d="M 880 -70.0  L 880 -70  L 910 -70  L 910 -100  L 1100 -100  L 1100 -310  L 1290 -310  L 1290 -740  L 1400 -740  L 1400 -745.0 " fill="none" marker-end="url(#id2)" stroke="rgb(0, 0, 0)" stroke-width="2" /><text fill="rgb(0, 0, 0)" font-family="Arial" font-size="10" text-anchor="middle" x="905" y="-60">stream-10</text></g><g id="stream-11"><path d="M 880 -70.0  L 880 -70  L 890 -70  L 890 -80  L 920 -80  L 920 -90  L 1110 -90  L 1110 -300  L 1300 -300  L 1300 -710  L 1490 -710  L 1490 -1340  L 1600 -1340  L 1600 -1345.0 " fill="none" marker-end="url(#id2)" stroke="rgb(0, 0, 0)" stroke-width="2" /><text fill="rgb(0, 0, 0)" font-family="Arial" font-size="10" text-anchor="middle" x="905" y="-60">stream-11</text></g><g id="stream-12"><path d="M 40 520.0  L 40 520  L 140 520  L 140 530  L 150 530 " fill="none" marker-end="url(#id2)" stroke="rgb(0, 0, 0)" stroke-width="2" /><text fill="rgb(0, 0, 0)" font-family="Arial" font-size="10" text-anchor="middle" x="65" y="510">stream-12</text></g><g id="stream-13"><path d="M 230 530.0  L 230 530  L 300 530 " fill="none" marker-end="url(#id2)" stroke="rgb(0, 0, 0)" stroke-width="2" /><text fill="rgb(0, 0, 0)" font-family="Arial" font-size="10" text-anchor="middle" x="255" y="520">stream-13</text></g><g id="stream-14"><path d="M 380 530.0  L 380 530  L 390 530  L 390 260  L 680 260  L 680 -30  L 740 -30  L 740 -60  L 790 -60  L 790 -70  L 800 -70 " fill="none" marker-end="url(#id2)" stroke="rgb(0, 0, 0)" stroke-width="2" /><text fill="rgb(0, 0, 0)" font-family="Arial" font-size="10" text-anchor="middle" x="405" y="540">stream-14</text></g><g id="stream-15"><path d="M 380 530.0  L 380 530  L 390 530  L 390 570  L 140 570  L 140 530  L 150 530 " fill="none" marker-end="url(#id2)" stroke="rgb(0, 0, 0)" stroke-width="2" /><text fill="rgb(0, 0, 0)" font-family="Arial" font-size="10" text-anchor="middle" x="405" y="520">stream-15</text></g><g id="stream-16"><path d="M 1280 -345.0  L 1280 -340  L 1310 -340  L 1310 -700  L 1390 -700  L 1390 -740  L 1400 -740  L 1400 -745.0 " fill="none" marker-end="url(#id2)" stroke="rgb(0, 0, 0)" stroke-width="2" /><text fill="rgb(0, 0, 0)" font-family="Arial" font-size="10" text-anchor="middle" x="1305" y="-330">stream-16</text></g><g id="stream-17"><path d="M 1480 -745.0  L 1480 -740  L 1550 -740  L 1550 -745.0 " fill="none" marker-end="url(#id2)" stroke="rgb(0, 0, 0)" stroke-width="2" /><text fill="rgb(0, 0, 0)" font-family="Arial" font-size="10" text-anchor="middle" x="1505" y="-750">stream-17</text></g><g id="stream-18"><path d="M 1680 -1345.0  L 1680 -1340  L 1750 -1340  L 1750 -1345.0 " fill="none" marker-end="url(#id2)" stroke="rgb(0, 0, 0)" stroke-width="2" /><text fill="rgb(0, 0, 0)" font-family="Arial" font-size="10" text-anchor="middle" x="1705" y="-1350">stream-18</text></g><g id="stream-19"><path d="M 1830 -1345.0  L 1830 -1340  L 1900 -1340  L 1900 -1345.0 " fill="none" marker-end="url(#id2)" stroke="rgb(0, 0, 0)" stroke-width="2" /><text fill="rgb(0, 0, 0)" font-family="Arial" font-size="10" text-anchor="middle" x="1855" y="-1350">stream-19</text></g><g id="stream-20"><path d="M 1980 -1345.0  L 1980 -1340  L 2090 -1340  L 2090 -1240  L 2100 -1240  L 2100 -1245.0 " fill="none" marker-end="url(#id2)" stroke="rgb(0, 0, 0)" stroke-width="2" /><text fill="rgb(0, 0, 0)" font-family="Arial" font-size="10" text-anchor="middle" x="2005" y="-1350">stream-20</text></g><g id="stream-21"><path d="M 1980 -1345.0  L 1980 -1340  L 1990 -1340  L 1990 -1440  L 2100 -1440  L 2100 -1445.0 " fill="none" marker-end="url(#id2)" stroke="rgb(0, 0, 0)" stroke-width="2" /><text fill="rgb(0, 0, 0)" font-family="Arial" font-size="10" text-anchor="middle" x="2005" y="-1330">stream-21</text></g><g id="stream-22"><path d="M 2180 -1445.0  L 2180 -1440  L 2250 -1440  L 2250 -1445.0 " fill="none" marker-end="url(#id2)" stroke="rgb(0, 0, 0)" stroke-width="2" /><text fill="rgb(0, 0, 0)" font-family="Arial" font-size="10" text-anchor="middle" x="2205" y="-1450">stream-22</text></g><g id="stream-23"><path d="M 2330 -1445.0  L 2330 -1440  L 2400 -1440  L 2400 -1445.0 " fill="none" marker-end="url(#id2)" stroke="rgb(0, 0, 0)" stroke-width="2" /><text fill="rgb(0, 0, 0)" font-family="Arial" font-size="10" text-anchor="middle" x="2355" y="-1450">stream-23</text></g><g id="stream-24"><path d="M 2480 -1445.0  L 2480 -1440  L 2550 -1440  L 2550 -1445.0 " fill="none" marker-end="url(#id2)" stroke="rgb(0, 0, 0)" stroke-width="2" /><text fill="rgb(0, 0, 0)" font-family="Arial" font-size="10" text-anchor="middle" x="2505" y="-1450">stream-24</text></g><g id="raw-1T"><path d="M 0 10.0  L 20.0 10.0  L 20.0 0  L 40 20.0  L 20.0 40  L 20.0 30.0  L 0 30.0  Z" fill="rgb(255, 255, 255)" stroke="rgb(0, 0, 0)" stroke-width="2" /></g><g id="raw-1"><text fill="rgb(0, 0, 0)" font-family="Arial" font-size="12" text-anchor="middle" x="20.0" y="25.0">raw-1</text></g><g id="comp-1T"><rect fill="rgb(255, 255, 255)" height="60" stroke="rgb(0, 0, 0)" stroke-width="2" width="80" x="150" y="0" /></g><g id="comp-1"><text fill="rgb(0, 0, 0)" font-family="Arial" font-size="12" text-anchor="middle" x="190.0" y="35.0">comp-1</text></g><g id="C-1/MT"><rect fill="rgb(255, 255, 255)" height="60" stroke="rgb(0, 0, 0)" stroke-width="2" width="80" x="350" y="100" /></g><g id="C-1/M"><text fill="rgb(0, 0, 0)" font-family="Arial" font-size="12" text-anchor="middle" x="390.0" y="135.0">C-1/M</text></g><g id="C-2/PCT"><rect fill="rgb(255, 255, 255)" height="60" stroke="rgb(0, 0, 0)" stroke-width="2" width="80" x="350" y="-100" /></g><g id="C-2/PC"><text fill="rgb(0, 0, 0)" font-family="Arial" font-size="12" text-anchor="middle" x="390.0" y="-65.0">C-2/PC</text></g><g id="C-3/FCT"><rect fill="rgb(255, 255, 255)" height="60" stroke="rgb(0, 0, 0)" stroke-width="2" width="80" x="500" y="-100" /></g><g id="C-3/FC"><text fill="rgb(0, 0, 0)" font-family="Arial" font-size="12" text-anchor="middle" x="540.0" y="-65.0">C-3/FC</text></g><g id="v-1T"><rect fill="rgb(255, 255, 255)" height="60" stroke="rgb(0, 0, 0)" stroke-width="2" width="80" x="650" y="-100" /></g><g id="v-1"><text fill="rgb(0, 0, 0)" font-family="Arial" font-size="12" text-anchor="middle" x="690.0" y="-65.0">v-1</text></g><g id="r-1T"><rect fill="rgb(255, 255, 255)" height="60" stroke="rgb(0, 0, 0)" stroke-width="2" width="80" x="800" y="-100" /></g><g id="r-1"><text fill="rgb(0, 0, 0)" font-family="Arial" font-size="12" text-anchor="middle" x="840.0" y="-65.0">r-1</text></g><g id="raw-2T"><path d="M 0 510.0  L 20.0 510.0  L 20.0 500  L 40 520.0  L 20.0 540  L 20.0 530.0  L 0 530.0  Z" fill="rgb(255, 255, 255)" stroke="rgb(0, 0, 0)" stroke-width="2" /></g><g id="raw-2"><text fill="rgb(0, 0, 0)" font-family="Arial" font-size="12" text-anchor="middle" x="20.0" y="525.0">raw-2</text></g><g id="hex-1T"><rect fill="rgb(255, 255, 255)" height="60" stroke="rgb(0, 0, 0)" stroke-width="2" width="80" x="150" y="500" /></g><g id="hex-1"><text fill="rgb(0, 0, 0)" font-family="Arial" font-size="12" text-anchor="middle" x="190.0" y="535.0">hex-1</text></g><g id="C-4/TCT"><rect fill="rgb(255, 255, 255)" height="60" stroke="rgb(0, 0, 0)" stroke-width="2" width="80" x="300" y="500" /></g><g id="C-4/TC"><text fill="rgb(0, 0, 0)" font-family="Arial" font-size="12" text-anchor="middle" x="340.0" y="535.0">C-4/TC</text></g><g id="C-5/TIT"><rect fill="rgb(255, 255, 255)" height="60.0" stroke="rgb(0, 0, 0)" stroke-width="2" width="80" x="1000" y="-175.0" /></g><g id="C-5/TI"><text fill="rgb(0, 0, 0)" font-family="Arial" font-size="12" text-anchor="middle" x="1040.0" y="-140.0">C-5/TI</text></g><g id="C-6/LCT"><rect fill="rgb(255, 255, 255)" height="60.0" stroke="rgb(0, 0, 0)" stroke-width="2" width="80" x="1200" y="-375.0" /></g><g id="C-6/LC"><text fill="rgb(0, 0, 0)" font-family="Arial" font-size="12" text-anchor="middle" x="1240.0" y="-340.0">C-6/LC</text></g><g id="v-2T"><rect fill="rgb(255, 255, 255)" height="60.0" stroke="rgb(0, 0, 0)" stroke-width="2" width="80" x="1400" y="-775.0" /></g><g id="v-2"><text fill="rgb(0, 0, 0)" font-family="Arial" font-size="12" text-anchor="middle" x="1440.0" y="-740.0">v-2</text></g><g id="prod-1T"><rect fill="rgb(255, 255, 255)" height="60.0" stroke="rgb(0, 0, 0)" stroke-width="2" width="80" x="1550" y="-775.0" /></g><g id="prod-1"><text fill="rgb(0, 0, 0)" font-family="Arial" font-size="12" text-anchor="middle" x="1590.0" y="-740.0">prod-1</text></g><g id="C-7/PCT"><rect fill="rgb(255, 255, 255)" height="60.0" stroke="rgb(0, 0, 0)" stroke-width="2" width="80" x="1600" y="-1375.0" /></g><g id="C-7/PC"><text fill="rgb(0, 0, 0)" font-family="Arial" font-size="12" text-anchor="middle" x="1640.0" y="-1340.0">C-7/PC</text></g><g id="v-3T"><rect fill="rgb(255, 255, 255)" height="60.0" stroke="rgb(0, 0, 0)" stroke-width="2" width="80" x="1750" y="-1375.0" /></g><g id="v-3"><text fill="rgb(0, 0, 0)" font-family="Arial" font-size="12" text-anchor="middle" x="1790.0" y="-1340.0">v-3</text></g><g id="pp-1T"><rect fill="rgb(255, 255, 255)" height="60.0" stroke="rgb(0, 0, 0)" stroke-width="2" width="80" x="1900" y="-1375.0" /></g><g id="pp-1"><text fill="rgb(0, 0, 0)" font-family="Arial" font-size="12" text-anchor="middle" x="1940.0" y="-1340.0">pp-1</text></g><g id="C-8/MT"><rect fill="rgb(255, 255, 255)" height="60.0" stroke="rgb(0, 0, 0)" stroke-width="2" width="80" x="2100" y="-1275.0" /></g><g id="C-8/M"><text fill="rgb(0, 0, 0)" font-family="Arial" font-size="12" text-anchor="middle" x="2140.0" y="-1240.0">C-8/M</text></g><g id="C-9/PIT"><rect fill="rgb(255, 255, 255)" height="60.0" stroke="rgb(0, 0, 0)" stroke-width="2" width="80" x="2100" y="-1475.0" /></g><g id="C-9/PI"><text fill="rgb(0, 0, 0)" font-family="Arial" font-size="12" text-anchor="middle" x="2140.0" y="-1440.0">C-9/PI</text></g><g id="C-10/FCT"><rect fill="rgb(255, 255, 255)" height="60.0" stroke="rgb(0, 0, 0)" stroke-width="2" width="80" x="2250" y="-1475.0" /></g><g id="C-10/FC"><text fill="rgb(0, 0, 0)" font-family="Arial" font-size="12" text-anchor="middle" x="2290.0" y="-1440.0">C-10/FC</text></g><g id="v-4T"><rect fill="rgb(255, 255, 255)" height="60.0" stroke="rgb(0, 0, 0)" stroke-width="2" width="80" x="2400" y="-1475.0" /></g><g id="v-4"><text fill="rgb(0, 0, 0)" font-family="Arial" font-size="12" text-anchor="middle" x="2440.0" y="-1440.0">v-4</text></g><g id="prod-2T"><rect fill="rgb(255, 255, 255)" height="60.0" stroke="rgb(0, 0, 0)" stroke-width="2" width="80" x="2550" y="-1475.0" /></g><g id="prod-2"><text fill="rgb(0, 0, 0)" font-family="Arial" font-size="12" text-anchor="middle" x="2590.0" y="-1440.0">prod-2</text></g></svg>