<?xml version="1.0" encoding="utf-8" ?>
<svg baseProfile="full" height="890.0px" style="background-color:rgb(255, 255, 255)" version="1.1" viewBox="-40,-290.0,860,890.0" width="860px" xmlns="http://www.w3.org/2000/svg" xmlns:ev="http://www.w3.org/2001/xml-events" xmlns:xlink="http://www.w3.org/1999/xlink"><defs><marker id="id2" markerHeight="4" markerWidth="4" orient="auto" refX="2" refY="2"><path d="M0,0 V4 L2,2 Z" stroke-width="1" /></marker></defs><g id="stream-1"><path d="M 40 20.0  L 40 20  L 140 20  L 140 30  L 150 30 " fill="none" marker-end="url(#id2)" stroke="rgb(0, 0, 0)" stroke-width="2" /><text fill="rgb(0, 0, 0)" font-family="Arial" font-size="10" text-anchor="middle" x="65" y="10">stream-1</text></g><g id="stream-2"><path d="M 230 30.0  L 230 30  L 340 30  L 340 130  L 350 130 " fill="none" marker-end="url(#id2)" stroke="rgb(0, 0, 0)" stroke-width="2" /><text fill="rgb(0, 0, 0)" font-family="Arial" font-size="10" text-anchor="middle" x="255" y="20">stream-2</text></g><g id="stream-3"><path d="M 230 30.0  L 230 30  L 240 30  L 240 -70  L 350 -70 " fill="none" marker-end="url(#id2)" stroke="rgb(0, 0, 0)" stroke-width="2" /><text fill="rgb(0, 0, 0)" font-family="Arial" font-size="10" text-anchor="middle" x="255" y="40">stream-3</text></g><g id="stream-4"><path d="M 430 -70.0  L 430 -70  L 540 -70  L 540 -20  L 550 -20 " fill="none" marker-end="url(#id2)" stroke="rgb(0, 0, 0)" stroke-width="2" /><text fill="rgb(0, 0, 0)" font-family="Arial" font-size="10" text-anchor="middle" x="455" y="-80">stream-4</text></g><g id="stream-5"><path d="M 430 -70.0  L 430 -70  L 440 -70  L 440 -220  L 550 -220 " fill="none" marker-end="url(#id2)" stroke="rgb(0, 0, 0)" stroke-width="2" /><text fill="rgb(0, 0, 0)" font-family="Arial" font-size="10" text-anchor="middle" x="455" y="-60">stream-5</text></g><g id="stream-6"><path d="M 630 -220.0  L 630 -220  L 700 -220 " fill="none" marker-end="url(#id2)" stroke="rgb(0, 0, 0)" stroke-width="2" /><text fill="rgb(0, 0, 0)" font-family="Arial" font-size="10" text-anchor="middle" x="655" y="-230">stream-6</text></g><g id="stream-7"><path d="M 40 520.0  L 40 520  L 140 520  L 140 530  L 150 530 " fill="none" marker-end="url(#id2)" stroke="rgb(0, 0, 0)" stroke-width="2" /><text fill="rgb(0, 0, 0)" font-family="Arial" font-size="10" text-anchor="middle" x="65" y="510">stream-7</text></g><g id="stream-8"><path d="M 230 530.0  L 230 530  L 240 530  L 240 300  L 530 300  L 530 -210  L 540 -210  L 540 -220  L 550 -220 " fill="none" marker-end="url(#id2)" stroke="rgb(0, 0, 0)" stroke-width="2" /><text fill="rgb(0, 0, 0)" font-family="Arial" font-size="10" text-anchor="middle" x="255" y="540">stream-8</text></g><g id="stream-9"><path d="M 230 530.0  L 230 530  L 300 530 " fill="none" marker-end="url(#id2)" stroke="rgb(0, 0, 0)" stroke-width="2" /><text fill="rgb(0, 0, 0)" font-family="Arial" font-size="10" text-anchor="middle" x="255" y="520">stream-9</text></g><g id="raw-1T"><path d="M 0 10.0  L 20.0 10.0  L 20.0 0  L 40 20.0  L 20.0 40  L 20.0 30.0  L 0 30.0  Z" fill="rgb(255, 255, 255)" stroke="rgb(0, 0, 0)" stroke-width="2" /></g><g id="raw-1"><text fill="rgb(0, 0, 0)" font-family="Arial" font-size="12" text-anchor="middle" x="20.0" y="25.0">raw-1</text></g><g id="flash-1T"><rect fill="rgb(255, 255, 255)" height="60" stroke="rgb(0, 0, 0)" stroke-width="2" width="80" x="150" y="0" /></g><g id="flash-1"><text fill="rgb(0, 0, 0)" font-family="Arial" font-size="12" text-anchor="middle" x="190.0" y="35.0">flash-1</text></g><g id="prod-1T"><rect fill="rgb(255, 255, 255)" height="60" stroke="rgb(0, 0, 0)" stroke-width="2" width="80" x="350" y="100" /></g><g id="prod-1"><text fill="rgb(0, 0, 0)" font-family="Arial" font-size="12" text-anchor="middle" x="390.0" y="135.0">prod-1</text></g><g id="splt-1T"><rect fill="rgb(255, 255, 255)" height="60" stroke="rgb(0, 0, 0)" stroke-width="2" width="80" x="350" y="-100" /></g><g id="splt-1"><text fill="rgb(0, 0, 0)" font-family="Arial" font-size="12" text-anchor="middle" x="390.0" y="-65.0">splt-1</text></g><g id="prod-2T"><rect fill="rgb(255, 255, 255)" height="60.0" stroke="rgb(0, 0, 0)" stroke-width="2" width="80" x="550" y="-50.0" /></g><g id="prod-2"><text fill="rgb(0, 0, 0)" font-family="Arial" font-size="12" text-anchor="middle" x="590.0" y="-15.0">prod-2</text></g><g id="r-1T"><rect fill="rgb(255, 255, 255)" height="60.0" stroke="rgb(0, 0, 0)" stroke-width="2" width="80" x="550" y="-250.0" /></g><g id="r-1"><text fill="rgb(0, 0, 0)" font-family="Arial" font-size="12" text-anchor="middle" x="590.0" y="-215.0">r-1</text></g><g id="raw-2T"><path d="M 0 510.0  L 20.0 510.0  L 20.0 500  L 40 520.0  L 20.0 540  L 20.0 530.0  L 0 530.0  Z" fill="rgb(255, 255, 255)" stroke="rgb(0, 0, 0)" stroke-width="2" /></g><g id="raw-2"><text fill="rgb(0, 0, 0)" font-family="Arial" font-size="12" text-anchor="middle" x="20.0" y="525.0">raw-2</text></g><g id="flash-2T"><rect fill="rgb(255, 255, 255)" height="60" stroke="rgb(0, 0, 0)" stroke-width="2" width="80" x="150" y="500" /></g><g id="flash-2"><text fill="rgb(0, 0, 0)" font-family="Arial" font-size="12" text-anchor="middle" x="190.0" y="535.0">flash-2</text></g><g id="prod-3T"><rect fill="rgb(255, 255, 255)" height="60" stroke="rgb(0, 0, 0)" stroke-width="2" width="80" x="300" y="500" /></g><g id="prod-3"><text fill="rgb(0, 0, 0)" font-family="Arial" font-size="12" text-anchor="middle" x="340.0" y="535.0">prod-3</text></g><g id="prod-4T"><rect fill="rgb(255, 255, 255)" height="60.0" stroke="rgb(0, 0, 0)" stroke-width="2" width="80" x="700" y="-250.0" /></g><g id="prod-4"><text fill="rgb(0, 0, 0)" font-family="Arial" font-size="12" text-anchor="middle" x="740.0" y="-215.0">prod-4</text></g></svg>