<?xml version="1.0" encoding="utf-8" ?>
<svg baseProfile="full" height="2140px" style="background-color:rgb(255, 255, 255)" version="1.1" viewBox="-40,-40,1210,2140" width="1210px" xmlns="http://www.w3.org/2000/svg" xmlns:ev="http://www.w3.org/2001/xml-events" xmlns:xlink="http://www.w3.org/1999/xlink"><defs><marker id="id13" markerHeight="4" markerWidth="4" orient="auto" refX="2" refY="2"><path d="M0,0 V4 L2,2 Z" stroke-width="1" /></marker></defs><g id="stream-1"><path d="M 40 20.0  L 40 20  L 140 20  L 140 30  L 150 30 " fill="none" marker-end="url(#id13)" stroke="rgb(0, 0, 0)" stroke-width="2" /><text fill="rgb(0, 0, 0)" font-family="Arial" font-size="10" text-anchor="middle" x="65" y="10">stream-1</text></g><g id="stream-2"><path d="M 230 30.0  L 230 30  L 300 30 " fill="none" marker-end="url(#id13)" stroke="rgb(0, 0, 0)" stroke-width="2" /><text fill="rgb(0, 0, 0)" font-family="Arial" font-size="10" text-anchor="middle" x="255" y="20">stream-2</text></g><g id="stream-3"><path d="M 380 30.0  L 380 30  L 450 30 " fill="none" marker-end="url(#id13)" stroke="rgb(0, 0, 0)" stroke-width="2" /><text fill="rgb(0, 0, 0)" font-family="Arial" font-size="10" text-anchor="middle" x="405" y="20">stream-3</text></g><g id="stream-4"><path d="M 530 30.0  L 530 30  L 600 30 " fill="none" marker-end="url(#id13)" stroke="rgb(0, 0, 0)" stroke-width="2" /><text fill="rgb(0, 0, 0)" font-family="Arial" font-size="10" text-anchor="middle" x="555" y="20">stream-4</text></g><g id="stream-5"><path d="M 680 30.0  L 680 30  L 750 30 " fill="none" marker-end="url(#id13)" stroke="rgb(0, 0, 0)" stroke-width="2" /><text fill="rgb(0, 0, 0)" font-family="Arial" font-size="10" text-anchor="middle" x="705" y="20">stream-5</text></g><g id="stream-6"><path d="M 830 30.0  L 830 30  L 900 30 " fill="none" marker-end="url(#id13)" stroke="rgb(0, 0, 0)" stroke-width="2" /><text fill="rgb(0, 0, 0)" font-family="Arial" font-size="10" text-anchor="middle" x="855" y="20">stream-6</text></g><g id="stream-7"><path d="M 40 520.0  L 40 520  L 140 520  L 140 530  L 150 530 " fill="none" marker-end="url(#id13)" stroke="rgb(0, 0, 0)" stroke-width="2" /><text fill="rgb(0, 0, 0)" font-family="Arial" font-size="10" text-anchor="middle" x="65" y="510">stream-7</text></g><g id="stream-8"><path d="M 380 530.0  L 380 530  L 450 530 " fill="none" marker-end="url(#id13)" stroke="rgb(0, 0, 0)" stroke-width="2" /><text fill="rgb(0, 0, 0)" font-family="Arial" font-size="10" text-anchor="middle" x="405" y="520">stream-8</text></g><g id="stream-9"><path d="M 530 530.0  L 530 530  L 600 530 " fill="none" marker-end="url(#id13)" stroke="rgb(0, 0, 0)" stroke-width="2" /><text fill="rgb(0, 0, 0)" font-family="Arial" font-size="10" text-anchor="middle" x="555" y="520">stream-9</text></g><g id="stream-10"><path d="M 40 1020.0  L 40 1020  L 140 1020  L 140 1030  L 150 1030 " fill="none" marker-end="url(#id13)" stroke="rgb(0, 0, 0)" stroke-width="2" /><text fill="rgb(0, 0, 0)" font-family="Arial" font-size="10" text-anchor="middle" x="65" y="1010">stream-10</text></g><g id="stream-11"><path d="M 230 1030.0  L 230 1030  L 240 1030  L 240 570  L 390 570  L 390 540  L 440 540  L 440 530  L 450 530 " fill="none" marker-end="url(#id13)" stroke="rgb(0, 0, 0)" stroke-width="2" /><text fill="rgb(0, 0, 0)" font-family="Arial" font-size="10" text-anchor="middle" x="255" y="1040">stream-11</text></g><g id="stream-12"><path d="M 680 530.0  L 680 530  L 690 530  L 690 40  L 740 40  L 740 30  L 750 30 " fill="none" marker-end="url(#id13)" stroke="rgb(0, 0, 0)" stroke-width="2" /><text fill="rgb(0, 0, 0)" font-family="Arial" font-size="10" text-anchor="middle" x="705" y="540">stream-12</text></g><g id="stream-13"><path d="M 40 1520.0  L 40 1520  L 140 1520  L 140 1530  L 150 1530 " fill="none" marker-end="url(#id13)" stroke="rgb(0, 0, 0)" stroke-width="2" /><text fill="rgb(0, 0, 0)" font-family="Arial" font-size="10" text-anchor="middle" x="65" y="1510">stream-13</text></g><g id="stream-14"><path d="M 230 1530.0  L 230 1530  L 240 1530  L 240 1040  L 250 1040  L 250 580  L 400 580  L 400 570  L 540 570  L 540 540  L 590 540  L 590 530  L 600 530 " fill="none" marker-end="url(#id13)" stroke="rgb(0, 0, 0)" stroke-width="2" /><text fill="rgb(0, 0, 0)" font-family="Arial" font-size="10" text-anchor="middle" x="255" y="1540">stream-14</text></g><g id="stream-15"><path d="M 980 30.0  L 980 30  L 1050 30 " fill="none" marker-end="url(#id13)" stroke="rgb(0, 0, 0)" stroke-width="2" /><text fill="rgb(0, 0, 0)" font-family="Arial" font-size="10" text-anchor="middle" x="1005" y="20">stream-15</text></g><g id="stream-16"><path d="M 40 2020.0  L 40 2020  L 140 2020  L 140 2030  L 150 2030 " fill="none" marker-end="url(#id13)" stroke="rgb(0, 0, 0)" stroke-width="2" /><text fill="rgb(0, 0, 0)" font-family="Arial" font-size="10" text-anchor="middle" x="65" y="2010">stream-16</text></g><g id="stream-17"><path d="M 230 2030.0  L 230 2030  L 300 2030 " fill="none" marker-end="url(#id13)" stroke="rgb(0, 0, 0)" stroke-width="2" /><text fill="rgb(0, 0, 0)" font-family="Arial" font-size="10" text-anchor="middle" x="255" y="2020">stream-17</text></g><g id="stream-18"><path d="M 230 530.0  L 230 530  L 300 530 " fill="none" marker-end="url(#id13)" stroke="rgb(0, 0, 0)" stroke-width="2" /><text fill="rgb(0, 0, 0)" font-family="Arial" font-size="10" text-anchor="middle" x="255" y="520">stream-18</text></g><g id="stream-19"><path d="M 380 2030.0  L 380 2030  L 450 2030 " fill="none" marker-end="url(#id13)" stroke="rgb(0, 0, 0)" stroke-width="2" /><text fill="rgb(0, 0, 0)" font-family="Arial" font-size="10" text-anchor="middle" x="405" y="2020">stream-19</text></g><g id="raw-1T"><path d="M 0 10.0  L 20.0 10.0  L 20.0 0  L 40 20.0  L 20.0 40  L 20.0 30.0  L 0 30.0  Z" fill="rgb(255, 255, 255)" stroke="rgb(0, 0, 0)" stroke-width="2" /></g><g id="raw-1"><text fill="rgb(0, 0, 0)" font-family="Arial" font-size="12" text-anchor="middle" x="20.0" y="25.0">raw-1</text></g><g id="v-1T"><rect fill="rgb(255, 255, 255)" height="60" stroke="rgb(0, 0, 0)" stroke-width="2" width="80" x="150" y="0" /></g><g id="v-1"><text fill="rgb(0, 0, 0)" font-family="Arial" font-size="12" text-anchor="middle" x="190.0" y="35.0">v-1</text></g><g id="tank-1T"><rect fill="rgb(255, 255, 255)" height="60" stroke="rgb(0, 0, 0)" stroke-width="2" width="80" x="300" y="0" /></g><g id="tank-1"><text fill="rgb(0, 0, 0)" font-family="Arial" font-size="12" text-anchor="middle" x="340.0" y="35.0">tank-1</text></g><g id="comp-1T"><rect fill="rgb(255, 255, 255)" height="60" stroke="rgb(0, 0, 0)" stroke-width="2" width="80" x="450" y="0" /></g><g id="comp-1"><text fill="rgb(0, 0, 0)" font-family="Arial" font-size="12" text-anchor="middle" x="490.0" y="35.0">comp-1</text></g><g id="v-2T"><rect fill="rgb(255, 255, 255)" height="60" stroke="rgb(0, 0, 0)" stroke-width="2" width="80" x="600" y="0" /></g><g id="v-2"><text fill="rgb(0, 0, 0)" font-family="Arial" font-size="12" text-anchor="middle" x="640.0" y="35.0">v-2</text></g><g id="r-1T"><rect fill="rgb(255, 255, 255)" height="60" stroke="rgb(0, 0, 0)" stroke-width="2" width="80" x="750" y="0" /></g><g id="r-1"><text fill="rgb(0, 0, 0)" font-family="Arial" font-size="12" text-anchor="middle" x="790.0" y="35.0">r-1</text></g><g id="raw-2T"><path d="M 0 510.0  L 20.0 510.0  L 20.0 500  L 40 520.0  L 20.0 540  L 20.0 530.0  L 0 530.0  Z" fill="rgb(255, 255, 255)" stroke="rgb(0, 0, 0)" stroke-width="2" /></g><g id="raw-2"><text fill="rgb(0, 0, 0)" font-family="Arial" font-size="12" text-anchor="middle" x="20.0" y="525.0">raw-2</text></g><g id="hex-2T"><rect fill="rgb(255, 255, 255)" height="60" stroke="rgb(0, 0, 0)" stroke-width="2" width="80" x="300" y="500" /></g><g id="hex-2"><text fill="rgb(0, 0, 0)" font-family="Arial" font-size="12" text-anchor="middle" x="340.0" y="535.0">hex-2</text></g><g id="mix-1T"><rect fill="rgb(255, 255, 255)" height="60" stroke="rgb(0, 0, 0)" stroke-width="2" width="80" x="450" y="500" /></g><g id="mix-1"><text fill="rgb(0, 0, 0)" font-family="Arial" font-size="12" text-anchor="middle" x="490.0" y="535.0">mix-1</text></g><g id="raw-3T"><path d="M 0 1010.0  L 20.0 1010.0  L 20.0 1000  L 40 1020.0  L 20.0 1040  L 20.0 1030.0  L 0 1030.0  Z" fill="rgb(255, 255, 255)" stroke="rgb(0, 0, 0)" stroke-width="2" /></g><g id="raw-3"><text fill="rgb(0, 0, 0)" font-family="Arial" font-size="12" text-anchor="middle" x="20.0" y="1025.0">raw-3</text></g><g id="v-3T"><rect fill="rgb(255, 255, 255)" height="60" stroke="rgb(0, 0, 0)" stroke-width="2" width="80" x="150" y="1000" /></g><g id="v-3"><text fill="rgb(0, 0, 0)" font-family="Arial" font-size="12" text-anchor="middle" x="190.0" y="1035.0">v-3</text></g><g id="mix-2T"><rect fill="rgb(255, 255, 255)" height="60" stroke="rgb(0, 0, 0)" stroke-width="2" width="80" x="600" y="500" /></g><g id="mix-2"><text fill="rgb(0, 0, 0)" font-family="Arial" font-size="12" text-anchor="middle" x="640.0" y="535.0">mix-2</text></g><g id="raw-4T"><path d="M 0 1510.0  L 20.0 1510.0  L 20.0 1500  L 40 1520.0  L 20.0 1540  L 20.0 1530.0  L 0 1530.0  Z" fill="rgb(255, 255, 255)" stroke="rgb(0, 0, 0)" stroke-width="2" /></g><g id="raw-4"><text fill="rgb(0, 0, 0)" font-family="Arial" font-size="12" text-anchor="middle" x="20.0" y="1525.0">raw-4</text></g><g id="v-4T"><rect fill="rgb(255, 255, 255)" height="60" stroke="rgb(0, 0, 0)" stroke-width="2" width="80" x="150" y="1500" /></g><g id="v-4"><text fill="rgb(0, 0, 0)" font-family="Arial" font-size="12" text-anchor="middle" x="190.0" y="1535.0">v-4</text></g><g id="v-5T"><rect fill="rgb(255, 255, 255)" height="60" stroke="rgb(0, 0, 0)" stroke-width="2" width="80" x="900" y="0" /></g><g id="v-5"><text fill="rgb(0, 0, 0)" font-family="Arial" font-size="12" text-anchor="middle" x="940.0" y="35.0">v-5</text></g><g id="prod-1T"><rect fill="rgb(255, 255, 255)" height="60" stroke="rgb(0, 0, 0)" stroke-width="2" width="80" x="1050" y="0" /></g><g id="prod-1"><text fill="rgb(0, 0, 0)" font-family="Arial" font-size="12" text-anchor="middle" x="1090.0" y="35.0">prod-1</text></g><g id="raw-5T"><path d="M 0 2010.0  L 20.0 2010.0  L 20.0 2000  L 40 2020.0  L 20.0 2040  L 20.0 2030.0  L 0 2030.0  Z" fill="rgb(255, 255, 255)" stroke="rgb(0, 0, 0)" stroke-width="2" /></g><g id="raw-5"><text fill="rgb(0, 0, 0)" font-family="Arial" font-size="12" text-anchor="middle" x="20.0" y="2025.0">raw-5</text></g><g id="v-6T"><rect fill="rgb(255, 255, 255)" height="60" stroke="rgb(0, 0, 0)" stroke-width="2" width="80" x="150" y="2000" /></g><g id="v-6"><text fill="rgb(0, 0, 0)" font-family="Arial" font-size="12" text-anchor="middle" x="190.0" y="2035.0">v-6</text></g><g id="prod-2T"><rect fill="rgb(255, 255, 255)" height="60" stroke="rgb(0, 0, 0)" stroke-width="2" width="80" x="450" y="2000" /></g><g id="prod-2"><text fill="rgb(0, 0, 0)" font-family="Arial" font-size="12" text-anchor="middle" x="490.0" y="2035.0">prod-2</text></g><g id="hex-1/1T"><rect fill="rgb(255, 255, 255)" height="60" stroke="rgb(0, 0, 0)" stroke-width="2" width="80" x="150" y="500" /></g><g id="hex-1/1"><text fill="rgb(0, 0, 0)" font-family="Arial" font-size="12" text-anchor="middle" x="190.0" y="535.0">hex-1/1</text></g><g id="hex-1/2T"><rect fill="rgb(255, 255, 255)" height="60" stroke="rgb(0, 0, 0)" stroke-width="2" width="80" x="300" y="2000" /></g><g id="hex-1/2"><text fill="rgb(0, 0, 0)" font-family="Arial" font-size="12" text-anchor="middle" x="340.0" y="2035.0">hex-1/2</text></g></svg>